<svg xmlns="http://www.w3.org/2000/svg" viewBox="0 0 220 220"><path fill="none" stroke="#DDDDDC" stroke-miterlimit="10" d="M116.8 126.7s24.5-12.6 13.2-28.5c-10.5-14.8-18.6-22.1 25.1-47.4M130 10c8.4 33-29.6 43-43.3 63.5-9.3 14 4.6 29.1 23.5 46.2M83.8 164.7c-30.8 8.6 18.7 26.3 57.9 9.5M79 142.8c-33.9 11.2 18.9 24 66.2 10.1m-76.9 27.4c-7.9-5.6-51.3 11-22 15.7 79.8 12.9 145.5-5.8 124.8-15.2M87.4 120.1s-14.1-1-31.5 7.4c-20.5 9.9 50.8 14.4 87.7 4.7M151.9 157.5c50.1-13.2 31.7-46.4 7.7-38-2.1.8-3.2 2.5-3.2 2.5m-93.6 82s4.6 3.8 28.3 5.3c36 2.3 91.3-1.3 92.6-18.3"/></svg>