<svg xmlns="http://www.w3.org/2000/svg" viewBox="0 0 220 220"><path fill="none" stroke="#DEDEDD" stroke-miterlimit="10" d="M10 10v200h200V10H10zm105.4 171.3c-2.9 6-8.6 9.9-15.1 11.8-10 2.3-19.6 1-26.7-3.3-4.8-2.9-8.5-7.4-11-12.6 5.1-3.1 10.1-6.2 15.2-9.3.1.1.5.8 1.1 1.7 1.9 3.3 3.6 5.6 6.9 7.2 3.2 1.1 10.3 1.8 13.1-3.9 1.7-2.9 1.1-12.3 1.1-22.6 0-16.2.1-32.2.1-48.4h18.7c0 17.2.1 34.4 0 51.5 0 10.5.9 20-3.4 27.9zM193 176c-6.5 22.2-42.8 23-57.2 8.3-3.1-3.5-5-5.3-6.8-9.3 7.7-4.4 7.7-4.4 15.2-8.8 4.1 6.3 7.8 9.7 14.6 11.1 9.2 1.1 18.4-2 16.3-11.8-2.1-8-18.8-9.9-30.2-18.4-11.5-7.7-14.2-26.5-4.8-37.3 3.2-4 8.5-6.9 14.2-8.4 2-.2 3.9-.5 5.9-.8 11.3-.2 18.4 2.8 23.6 8.6 1.4 1.5 2.6 3 4.8 6.5-6 3.8-6 3.8-14.6 9.4-1.8-4-4.9-6.5-8.1-7.5-5-1.5-11.3.1-12.7 5.4-.5 1.6-.4 3.2.4 5.9 2 4.6 8.9 6.7 15 9.5 17.6 7.1 23.6 14.8 25 23.9 1.4 7.9-.3 12.9-.6 13.7z"/></svg>