<svg xmlns="http://www.w3.org/2000/svg" viewBox="0 0 220 220"><path fill="none" stroke="#DEDEDD" stroke-miterlimit="10" d="M79.3 75.4v78.7c0 14.5-7.9 22.9-21.7 22.9-4.2 0-7.6 0-16.9-4.6L29 165.6c-4.7-2.8-7.7-7.9-7.7-13.4V67.7c0-5.5 2.9-10.6 7.7-13.4L102.3 12c4.6-2.6 10.8-2.6 15.4 0L191 54.3c4.7 2.7 7.7 7.9 7.7 13.4v84.6c0 5.5-3 10.6-7.7 13.4L117.7 208c-2.3 1.4-5 2.1-7.7 2.1s-5.3-.7-7.7-2.1l-24.5-14.5m22.9-71c0 14.4 10 22.8 29 22.8 24.4 0 32.2-6.6 32.2-18.5 0-10.2-11.8-16.9-29.5-16.9-16 0-28.7-4.3-28.7-16.1 0-9.9 5.8-16.9 26.1-16.9 26.5 0 29.7 12.5 29.7 21.5"/></svg>