<svg xmlns="http://www.w3.org/2000/svg" viewBox="0 0 220 220"><path fill="none" stroke="#DDDDDC" stroke-miterlimit="10" d="M190.8 97.7c2.1 2.3 2.6 6.3 1.5 11.9-1.1 5.8-3.3 10-6.6 12.5-3.2 2.5-8.2 3.7-14.8 3.7h-10l6.1-31.6h11.3c6.2 0 10.4 1.2 12.5 3.5zM50 94.2H38.8l-6.1 31.6h10c6.6 0 11.6-1.2 14.8-3.7 3.2-2.5 5.4-6.7 6.6-12.5 1.1-5.6.6-9.6-1.5-11.9-2.2-2.3-6.3-3.5-12.6-3.5zm20.7 35c-3.3 3.1-6.9 5.3-10.9 6.6-4 1.3-9.1 2-15.3 2H30.3l-3.9 20.1H10l14.7-75.4h31.6c9.5 0 16.4 2.5 20.8 7.5 4.4 5 5.7 12 3.9 20.9-.7 3.7-1.9 7.1-3.6 10.1-1.7 2.8-4 5.6-6.7 8.2zm50.1 8.5l6.5-33.4c.7-3.8.5-6.4-.8-7.8s-4-2.1-8.2-2.1h-13l-8.4 43.2H80.5l14.7-75.4h16.3l-3.9 20.1h14.5c9.1 0 15.4 1.6 18.9 4.8 3.5 3.2 4.5 8.4 3.1 15.5l-6.8 35.1h-16.5zm88.5-27c-.7 3.7-1.9 7.1-3.6 10.1-1.7 3.1-3.9 5.8-6.7 8.4-3.3 3.1-6.9 5.3-10.9 6.6-4 1.3-9.1 2-15.3 2h-14.1l-3.9 20.1h-16.4l14.7-75.4h31.6c9.5 0 16.4 2.5 20.8 7.5 4.2 4.8 5.5 11.7 3.8 20.7z"/></svg>