<svg xmlns="http://www.w3.org/2000/svg" viewBox="0 0 220 220"><path fill="none" stroke="#DDDDDC" stroke-miterlimit="10" d="M83 24.6c4.9 0 9 4.1 9 9.1s-4 9.1-9 9.1c-4.9 0-9-4.1-9-9.1.1-5 4.1-9.1 9-9.1zm53.7 151.5c4.9 0 9 4.1 9 9.1s-4 9.1-9 9.1c-4.9 0-9-4.1-9-9.1 0-5.1 4.1-9.1 9-9.1zM109.9 61H62.2m95.3 96.9h-48.7m96.5-72.7c-3.4-13.8-10-24.2-23.9-24.2h-23.9V36.8c0-12.9-10.9-22.6-23.9-24.8-8.2-1.4-16.7-2-24.9-1.9-8.2 0-15.9.7-22.8 1.9C65.7 15.6 62 23 62 36.8V61H44.3c-13.9 0-26 8.3-29.8 24.2-4.4 18.2-4.6 29.5 0 48.5 3.4 14.1 11.5 24.2 25.4 24.2h22.4v24.2c0 12.9 11.2 20.5 23.9 24.2 15.1 4.4 29.6 5.2 47.7 0 12-3.5 23.9-10.5 23.9-24.2v-24.2h23.9c13.9 0 19-9.7 23.9-24.2 4.6-15 4.4-29.3-.3-48.5zM62.2 157.9v-1.2c0-25.8 20.9-46.6 46.6-46.6 26.9 0 48.7-21.8 48.7-48.7V61"/></svg>