<svg xmlns="http://www.w3.org/2000/svg" viewBox="0 0 220 220"><path fill="none" stroke="#DDDDDC" stroke-miterlimit="10" d="M117.8 143.4l14.2 6.5-1.4-10.1-13-7 .2 10.6zM10 177.4l18.5 2.1 4-17.2-17.7-3.1-4.8 18.2zM75.8 58.3l-12.1-9-8.4 11.4L68.6 69l7.2-10.7zm37.1-30.2L105.2 18l-10.9 6.4 9.1 9.9 9.5-6.2zm40-7.1l-2.5-8.3-13.2-1.1 3.8 9.1 11.9.3zM48.1 105L33 98.4l-5.1 15 15.5 5.8 4.7-14.2zm75.3-6.8l-2.7 9.3 9.7 9 2.4-8.6-9.4-9.7zm28.5-72.8C113 23.5 43.3 60.4 33.3 208.3h95.4c-21.4-55.4-18.9-97.2-4.2-125.6 21.4-41.2 53.2-43.9 83-26.6 1.1-2.5 2.5-5.7 2.5-5.7-17-16.2-32.8-23.8-58.1-25zm2.9 30.7l3.5 8.5 6.6-3.5-2.4-7.8-7.7 2.8zm-21.6 19.3l7.2 9.9 4.5-6.5-6.3-9.8-5.4 6.4zm11 115.6l-4.5-10.9-16.5-3.1 4.3 12.5 16.7 1.5z"/></svg>