<svg xmlns="http://www.w3.org/2000/svg" viewBox="0 0 220 220"><path fill="none" stroke="#DEDEDD" stroke-miterlimit="10" d="M183 126.7c-10.3 5.4-20.9 8.9-31.9 11.3-14.5 3.2-29.5 4.3-44.6 4.6-15.3-.5-30.6-2.1-45.2-6.3-14-4-27.3-10.4-39.6-20.6-4.3-4.5-12.5-13-11.6-24.6.5-6.1 3.4-13.1 10.8-20.8L54.2 40C67 36.2 93.9 27 94.7 27.2c.8.3 29.8 1 44.6 1.6l33.3 15.7 30.8 31.1c8.6 12.2 7.9 22.8 2.8 31.4-5 8.6-14.4 15.3-23.2 19.7zM151.1 138l-41.3 54.7m0 .1l-3.3-50.1m-45.2-6.3l48.4 56.4m.1 0l86-74.1m-86 74.1l-88.1-76.9m28.1-57.8c-.1 16 30.4 26.5 62.4 26.7s60-10.9 60.1-26.9c.1-16-30.1-27.3-62.2-27.5-32-.1-60.2 11.7-60.3 27.7zm-29 12.3l21.7-6.5 11.6-23.8m-32.4 75.8L42.6 64 10.1 91.2m51.2 45.2l15.9-50.3-55.5 29.8m55.5-29.8l29.3 56.6 32.6-54.4m43.9 38.4l-43.9-38.5 12 49.8m55.1-30.9l-29.4-39 6.1 58.7m-10.3-82.3l4.3 23.5 26.6 7.6M42.6 63.9l34.6 22.2 61.9 2.1L176.8 68"/></svg>